# xmcd
#
# Track frame offsets:
#	150
#	19280
#	35219
#	46049
#	60936
#	78045
#	94577
#	108614
#	123141
#	132111
#	152863
#	168235
#	178367
#	193724
#	209461
#
# Disc length: 3024 seconds
#
# Revision: 6
# Processed by: cddbd v1.5PL3 Copyright (c) Steve Scherf et al.
# Submitted via: MusicManager 7.0.3.0 
#
DISCID=c40bce0f
DTITLE=Earle, Steve  - Transcendental Blues
DYEAR=2000
DGENRE=
TTITLE0=Transcendental Blues
TTITLE1=Everyone's In Love With You
TTITLE2=Another Town
TTITLE3=I Can Wait
TTITLE4=The Boy Who Never Cried
TTITLE5=Steve's Last Ramble
TTITLE6=The Galway Girl
TTITLE7=Lonelier Than This
TTITLE8=Wherever I Go
TTITLE9=When I Fall
TTITLE10=Don't Want To Lose You
TTITLE11=Halo 'Round The Moon
TTITLE12=Until The Day I Die
TTITLE13=All Of My Life
TTITLE14=Over Yonder (Jonathan's Song)
EXTD=
EXTT0=
EXTT1=
EXTT2=
EXTT3=
EXTT4=
EXTT5=
EXTT6=
EXTT7=
EXTT8=
EXTT9=
EXTT10=
EXTT11=
EXTT12=
EXTT13=
EXTT14=
PLAYORDER=
